@startuml SensorHierarchy
!include /home/sjames/playground/syscribe/.plantuml/sysml.iuml
hide empty members

class "Sensor" as sensor_block <<part>> [[https://github.com/sjames/syscribe/blob/main/model_auto/System/Sensors/Sensor.md]]
class "Crankshaft Position Sensor" as cps_block <<part>> [[https://github.com/sjames/syscribe/blob/main/model_auto/System/Sensors/CrankshaftPositionSensor.md]]
class "Throttle Position Sensor" as tps_block <<part>> [[https://github.com/sjames/syscribe/blob/main/model_auto/System/Sensors/ThrottlePositionSensor.md]]
class "Lambda Sensor" as lambda_block <<part>> [[https://github.com/sjames/syscribe/blob/main/model_auto/System/Sensors/LambdaSensor.md]]

cps_block --|> sensor_block : cps-inherit
tps_block --|> sensor_block : tps-inherit
lambda_block --|> sensor_block : lambda-inherit

@enduml
